<svg viewBox="0 0 30 30" xml:space="preserve" xmlns="http://www.w3.org/2000/svg" enable-background="new 0 0 30 30"><path d="M2 15h26v10H2z" fill="#8b909a" class="fill-000000"></path><path d="M28 26V15M2 26V15" fill="none" stroke="#8b909a" stroke-width="2" stroke-linecap="round" stroke-miterlimit="10" class="stroke-000000"></path><path d="M25 4H5a2 2 0 0 0-2 2v7h2v-2a1 1 0 0 1 1-1h7a1 1 0 0 1 1 1v2h2v-2a1 1 0 0 1 1-1h7a1 1 0 0 1 1 1v2h2V6a2 2 0 0 0-2-2z" fill="#8b909a" class="fill-000000"></path></svg>